<?xml version="1.0" encoding="UTF-8" standalone="no"?>
<!DOCTYPE svg PUBLIC "-//W3C//DTD SVG 1.1//EN" "http://www.w3.org/Graphics/SVG/1.1/DTD/svg11.dtd">
<svg width="100%" height="100%" viewBox="0 0 600 600" version="1.1" xmlns="http://www.w3.org/2000/svg" xmlns:xlink="http://www.w3.org/1999/xlink" xml:space="preserve" xmlns:serif="http://www.serif.com/" style="fill-rule:evenodd;clip-rule:evenodd;stroke-linejoin:round;stroke-miterlimit:2;">
    <g transform="matrix(1,0,0,1,0,-771)">
        <g id="logo-mark" transform="matrix(1.316331,0,0,1.316331,-2667.205827,234.72351)">
            <rect x="2026.243" y="407.403" width="455.813" height="455.813" style="fill:none;"/>
            <clipPath id="_clip1">
                <rect x="2026.243" y="407.403" width="455.813" height="455.813"/>
            </clipPath>
            <g clip-path="url(#_clip1)">
                <g transform="matrix(3.811048,0,0,3.811048,3625.861686,-314.264734)">
                    <g transform="matrix(0.968421,0,0,0.968421,121.710861,-77.46275)">
                        <circle cx="-497.431" cy="337.193" r="57.506" style="fill:rgb(177,207,160);"/>
                    </g>
                    <g transform="matrix(0.968421,0,0,0.968421,121.710861,-77.46275)">
                        <path d="M-497.431,275.525C-463.395,275.525 -435.763,303.158 -435.763,337.193C-435.763,371.229 -463.395,398.861 -497.431,398.861C-531.466,398.861 -559.099,371.229 -559.099,337.193C-559.099,303.158 -531.466,275.525 -497.431,275.525ZM-502.212,340.92C-503.135,318.52 -523.707,314.8 -531.415,314.193C-531.424,316.784 -531.207,320.826 -530.08,325.046C-528.876,329.556 -526.634,334.318 -522.309,337.539C-517.939,340.793 -511.529,342.377 -502.212,340.92ZM-462.81,377.764C-451.354,367.977 -444.087,353.427 -444.087,337.193C-444.087,307.752 -467.989,283.85 -497.431,283.85C-526.872,283.85 -550.774,307.752 -550.774,337.193C-550.774,350.325 -546.019,362.356 -538.137,371.654C-524.305,377.433 -504.957,368.45 -502.45,347.179C-513.311,348.638 -520.802,346.342 -525.989,342.48C-531.503,338.373 -534.496,332.386 -536.032,326.636C-538.241,318.362 -537.421,310.677 -537.421,310.677C-537.259,309.133 -535.972,307.951 -534.42,307.92C-534.42,307.92 -505.046,307.43 -497.678,330.831C-496.29,326.893 -494.567,323.852 -492.59,321.432C-488.816,316.812 -484.077,314.324 -478.628,312.38C-473.766,310.644 -468.302,309.346 -462.538,306.947C-461.546,306.534 -460.411,306.668 -459.542,307.3C-458.673,307.933 -458.196,308.972 -458.285,310.043C-459.411,323.725 -462.23,331.708 -465.84,336.86C-469.599,342.223 -474.253,344.674 -479.216,346.988C-484.54,349.471 -490.274,351.793 -495.084,359.263C-494.361,367.641 -490.917,374.368 -485.553,378.116C-479.686,382.215 -471.648,382.518 -462.81,377.764ZM-500.892,362.513C-507.25,373.889 -518.871,379.665 -529.939,379.478C-520.936,386.412 -509.662,390.537 -497.431,390.537C-490.892,390.537 -484.626,389.358 -478.834,387.201C-482.623,386.665 -486.078,385.264 -489.082,383.166C-495.161,378.918 -499.484,371.66 -500.892,362.513ZM-494.929,349.434C-490.684,345.438 -486.164,343.431 -481.819,341.405C-477.797,339.529 -473.931,337.67 -470.885,333.324C-468.147,329.417 -466.089,323.625 -464.929,314.428C-469.049,315.844 -472.963,316.899 -476.558,318.182C-480.925,319.741 -484.794,321.626 -487.819,325.33C-491.596,329.953 -494.028,337.213 -494.929,349.434Z" style="fill:rgb(21,40,26);"/>
                    </g>
                </g>
            </g>
        </g>
    </g>
</svg>
