<svg xmlns="http://www.w3.org/2000/svg" width="1920" height="1080" viewBox="0 0 1920 1080">
  <rect width="1920" height="1080" fill="transparent"/>
  
  <!-- Small stars -->
  <circle cx="150" cy="80" r="1" fill="white" opacity="0.6"/>
  <circle cx="280" cy="120" r="1" fill="white" opacity="0.4"/>
  <circle cx="420" cy="95" r="1" fill="white" opacity="0.7"/>
  <circle cx="580" cy="140" r="1" fill="white" opacity="0.5"/>
  <circle cx="720" cy="60" r="1" fill="white" opacity="0.6"/>
  <circle cx="890" cy="110" r="1" fill="white" opacity="0.8"/>
  <circle cx="1050" cy="85" r="1" fill="white" opacity="0.4"/>
  <circle cx="1200" cy="130" r="1" fill="white" opacity="0.6"/>
  <circle cx="1350" cy="70" r="1" fill="white" opacity="0.5"/>
  <circle cx="1500" cy="100" r="1" fill="white" opacity="0.7"/>
  <circle cx="1680" cy="120" r="1" fill="white" opacity="0.6"/>
  <circle cx="1820" cy="90" r="1" fill="white" opacity="0.5"/>
  
  <!-- Medium stars -->
  <circle cx="200" cy="200" r="1.5" fill="white" opacity="0.7"/>
  <circle cx="380" cy="250" r="1.5" fill="white" opacity="0.6"/>
  <circle cx="560" cy="220" r="1.5" fill="white" opacity="0.8"/>
  <circle cx="740" cy="280" r="1.5" fill="white" opacity="0.5"/>
  <circle cx="920" cy="240" r="1.5" fill="white" opacity="0.7"/>
  <circle cx="1100" cy="260" r="1.5" fill="white" opacity="0.6"/>
  <circle cx="1280" cy="230" r="1.5" fill="white" opacity="0.7"/>
  <circle cx="1460" cy="270" r="1.5" fill="white" opacity="0.5"/>
  <circle cx="1640" cy="250" r="1.5" fill="white" opacity="0.8"/>
  <circle cx="1780" cy="220" r="1.5" fill="white" opacity="0.6"/>
  
  <!-- More small stars scattered throughout -->
  <circle cx="310" cy="350" r="1" fill="white" opacity="0.5"/>
  <circle cx="480" cy="380" r="1" fill="white" opacity="0.6"/>
  <circle cx="650" cy="340" r="1" fill="white" opacity="0.4"/>
  <circle cx="820" cy="390" r="1" fill="white" opacity="0.7"/>
  <circle cx="990" cy="360" r="1" fill="white" opacity="0.5"/>
  <circle cx="1160" cy="370" r="1" fill="white" opacity="0.6"/>
  <circle cx="1330" cy="340" r="1" fill="white" opacity="0.7"/>
  <circle cx="1500" cy="380" r="1" fill="white" opacity="0.5"/>
  <circle cx="1670" cy="350" r="1" fill="white" opacity="0.6"/>
  
  <!-- Larger prominent stars -->
  <circle cx="340" cy="480" r="2" fill="white" opacity="0.8"/>
  <circle cx="690" cy="520" r="2" fill="white" opacity="0.7"/>
  <circle cx="1040" cy="490" r="2" fill="white" opacity="0.9"/>
  <circle cx="1390" cy="530" r="2" fill="white" opacity="0.7"/>
  <circle cx="1740" cy="500" r="2" fill="white" opacity="0.8"/>
  
  <!-- Bottom section stars -->
  <circle cx="220" cy="620" r="1" fill="white" opacity="0.6"/>
  <circle cx="410" cy="680" r="1" fill="white" opacity="0.5"/>
  <circle cx="600" cy="640" r="1" fill="white" opacity="0.7"/>
  <circle cx="790" cy="690" r="1" fill="white" opacity="0.4"/>
  <circle cx="980" cy="660" r="1" fill="white" opacity="0.6"/>
  <circle cx="1170" cy="700" r="1" fill="white" opacity="0.5"/>
  <circle cx="1360" cy="670" r="1" fill="white" opacity="0.7"/>
  <circle cx="1550" cy="710" r="1" fill="white" opacity="0.6"/>
  <circle cx="1740" cy="680" r="1" fill="white" opacity="0.5"/>
  
  <!-- Medium stars bottom -->
  <circle cx="270" cy="800" r="1.5" fill="white" opacity="0.7"/>
  <circle cx="520" cy="840" r="1.5" fill="white" opacity="0.6"/>
  <circle cx="770" cy="820" r="1.5" fill="white" opacity="0.8"/>
  <circle cx="1020" cy="860" r="1.5" fill="white" opacity="0.5"/>
  <circle cx="1270" cy="830" r="1.5" fill="white" opacity="0.7"/>
  <circle cx="1520" cy="870" r="1.5" fill="white" opacity="0.6"/>
  <circle cx="1770" cy="850" r="1.5" fill="white" opacity="0.7"/>
  
  <!-- Very faint tiny stars for depth -->
  <circle cx="130" cy="300" r="0.8" fill="white" opacity="0.3"/>
  <circle cx="330" cy="180" r="0.8" fill="white" opacity="0.3"/>
  <circle cx="530" cy="450" r="0.8" fill="white" opacity="0.3"/>
  <circle cx="730" cy="380" r="0.8" fill="white" opacity="0.3"/>
  <circle cx="930" cy="520" r="0.8" fill="white" opacity="0.3"/>
  <circle cx="1130" cy="420" r="0.8" fill="white" opacity="0.3"/>
  <circle cx="1330" cy="580" r="0.8" fill="white" opacity="0.3"/>
  <circle cx="1530" cy="480" r="0.8" fill="white" opacity="0.3"/>
  <circle cx="1730" cy="620" r="0.8" fill="white" opacity="0.3"/>
  <circle cx="1830" cy="740" r="0.8" fill="white" opacity="0.3"/>
</svg>
