<?xml version="1.0" encoding="UTF-8" standalone="no"?>
<!DOCTYPE svg PUBLIC "-//W3C//DTD SVG 1.1//EN" "http://www.w3.org/Graphics/SVG/1.1/DTD/svg11.dtd">
<svg width="100%" height="100%" viewBox="0 0 1270 122" version="1.1" xmlns="http://www.w3.org/2000/svg" xmlns:xlink="http://www.w3.org/1999/xlink" xml:space="preserve" xmlns:serif="http://www.serif.com/" style="fill-rule:evenodd;clip-rule:evenodd;stroke-linejoin:round;stroke-miterlimit:2;">
    <g transform="matrix(1,0,0,1,-1182,-968)">
        <g id="logo" transform="matrix(0.908821,0,0,1.012064,300.533577,-9.574103)">
            <rect x="969.901" y="965.921" width="1397.415" height="120.546" style="fill:none;"/>
            <clipPath id="_clip1">
                <rect x="969.901" y="965.921" width="1397.415" height="120.546"/>
            </clipPath>
            <g clip-path="url(#_clip1)">
                <g id="logo-dark" transform="matrix(1.100327,0,0,0.98808,797.721737,1484.373204)">
                    <g transform="matrix(1,0,0,1,41.249954,-810.787983)">
                        <g transform="matrix(136,0,0,136,274.977963,398.253952)">
                            <path d="M0.454,-0.476L0.52,-0.476L0.52,-0.709L0.442,-0.709L0.446,-0.668C0.401,-0.7 0.33,-0.716 0.277,-0.716C0.1,-0.716 0.043,-0.608 0.043,-0.525C0.043,-0.394 0.141,-0.33 0.27,-0.278C0.345,-0.248 0.43,-0.22 0.43,-0.15C0.43,-0.099 0.381,-0.056 0.31,-0.056C0.216,-0.056 0.143,-0.113 0.125,-0.225L0.059,-0.225L0.059,0.009L0.136,0.009L0.133,-0.033C0.187,-0.001 0.254,0.016 0.307,0.016C0.461,0.016 0.563,-0.067 0.563,-0.186C0.563,-0.316 0.436,-0.378 0.335,-0.418C0.225,-0.463 0.173,-0.496 0.173,-0.558C0.173,-0.608 0.224,-0.644 0.281,-0.644C0.374,-0.645 0.436,-0.587 0.454,-0.476Z" style="fill:rgb(21,40,26);fill-rule:nonzero;"/>
                        </g>
                        <g transform="matrix(136,0,0,136,355.081963,398.253952)">
                            <path d="M0.041,-0L0.298,-0L0.298,-0.076C0.284,-0.076 0.259,-0.075 0.238,-0.073C0.241,-0.103 0.242,-0.142 0.242,-0.161L0.242,-0.387C0.264,-0.407 0.294,-0.424 0.327,-0.424C0.372,-0.423 0.399,-0.397 0.399,-0.31L0.4,-0.154C0.4,-0.101 0.396,-0.065 0.345,-0.065L0.345,-0L0.603,-0L0.603,-0.076C0.588,-0.076 0.559,-0.075 0.538,-0.073C0.541,-0.103 0.542,-0.142 0.542,-0.161L0.542,-0.295C0.542,-0.331 0.539,-0.363 0.533,-0.39C0.557,-0.409 0.587,-0.424 0.622,-0.423C0.667,-0.421 0.697,-0.394 0.698,-0.307L0.698,-0.154C0.698,-0.101 0.694,-0.065 0.648,-0.065L0.648,-0L0.901,-0L0.901,-0.076C0.887,-0.076 0.857,-0.075 0.836,-0.073C0.839,-0.103 0.84,-0.142 0.84,-0.161L0.84,-0.308C0.84,-0.461 0.784,-0.516 0.676,-0.516C0.623,-0.516 0.561,-0.49 0.513,-0.45C0.489,-0.494 0.45,-0.516 0.389,-0.516C0.342,-0.516 0.286,-0.494 0.241,-0.46C0.24,-0.473 0.239,-0.496 0.237,-0.51L0.188,-0.51C0.174,-0.497 0.126,-0.48 0.034,-0.48L0.034,-0.404C0.048,-0.405 0.083,-0.406 0.104,-0.407C0.101,-0.377 0.1,-0.346 0.1,-0.322L0.1,-0.154C0.1,-0.101 0.096,-0.065 0.041,-0.065L0.041,-0Z" style="fill:rgb(21,40,26);fill-rule:nonzero;"/>
                        </g>
                        <g transform="matrix(136,0,0,136,480.201963,398.253952)">
                            <path d="M0.319,-0L0.508,-0L0.508,-0.076C0.494,-0.076 0.465,-0.075 0.443,-0.073C0.446,-0.103 0.447,-0.142 0.447,-0.161C0.447,-0.229 0.448,-0.257 0.448,-0.325C0.448,-0.458 0.38,-0.516 0.263,-0.516C0.146,-0.516 0.052,-0.463 0.052,-0.384C0.052,-0.348 0.074,-0.317 0.114,-0.316C0.161,-0.315 0.181,-0.351 0.181,-0.378C0.181,-0.388 0.179,-0.404 0.169,-0.416C0.186,-0.433 0.211,-0.443 0.237,-0.444C0.292,-0.446 0.309,-0.405 0.309,-0.353L0.309,-0.301C0.175,-0.295 0.03,-0.244 0.03,-0.117C0.03,-0.041 0.08,0.016 0.166,0.016C0.218,0.016 0.269,-0 0.315,-0.046C0.316,-0.029 0.316,-0.019 0.319,-0ZM0.308,-0.23L0.308,-0.118C0.287,-0.096 0.259,-0.082 0.229,-0.082C0.2,-0.082 0.173,-0.097 0.172,-0.134C0.171,-0.191 0.233,-0.223 0.308,-0.23Z" style="fill:rgb(21,40,26);fill-rule:nonzero;"/>
                        </g>
                        <g transform="matrix(136,0,0,136,551.465963,398.253952)">
                            <path d="M0.025,-0.065L0.025,-0L0.287,-0L0.287,-0.076C0.273,-0.076 0.244,-0.075 0.222,-0.073C0.225,-0.103 0.226,-0.142 0.226,-0.161L0.226,-0.755L0.172,-0.755C0.158,-0.742 0.111,-0.725 0.018,-0.725L0.018,-0.649C0.032,-0.65 0.067,-0.651 0.088,-0.652C0.085,-0.623 0.084,-0.589 0.084,-0.565L0.084,-0.154C0.084,-0.101 0.081,-0.065 0.025,-0.065Z" style="fill:rgb(21,40,26);fill-rule:nonzero;"/>
                        </g>
                        <g transform="matrix(136,0,0,136,593.897963,398.253952)">
                            <path d="M0.025,-0.065L0.025,-0L0.287,-0L0.287,-0.076C0.273,-0.076 0.244,-0.075 0.222,-0.073C0.225,-0.103 0.226,-0.142 0.226,-0.161L0.226,-0.755L0.172,-0.755C0.158,-0.742 0.111,-0.725 0.018,-0.725L0.018,-0.649C0.032,-0.65 0.067,-0.651 0.088,-0.652C0.085,-0.623 0.084,-0.589 0.084,-0.565L0.084,-0.154C0.084,-0.101 0.081,-0.065 0.025,-0.065Z" style="fill:rgb(21,40,26);fill-rule:nonzero;"/>
                        </g>
                        <g transform="matrix(136,0,0,136,672.097963,398.253952)">
                            <path d="M0.05,-0.066L0.05,-0L0.347,-0L0.347,-0.077C0.333,-0.077 0.283,-0.076 0.262,-0.074C0.264,-0.091 0.266,-0.128 0.266,-0.165L0.266,-0.253C0.289,-0.252 0.308,-0.252 0.338,-0.253C0.527,-0.259 0.619,-0.368 0.622,-0.475C0.626,-0.634 0.51,-0.703 0.334,-0.702C0.239,-0.701 0.145,-0.701 0.05,-0.7L0.05,-0.623C0.064,-0.624 0.104,-0.625 0.125,-0.626C0.123,-0.609 0.121,-0.572 0.121,-0.536L0.121,-0.153C0.121,-0.072 0.095,-0.068 0.05,-0.066ZM0.266,-0.328L0.266,-0.553C0.266,-0.623 0.291,-0.632 0.333,-0.632C0.383,-0.632 0.467,-0.618 0.467,-0.484C0.467,-0.382 0.421,-0.325 0.311,-0.325C0.295,-0.325 0.28,-0.326 0.266,-0.328Z" style="fill:rgb(21,40,26);fill-rule:nonzero;"/>
                        </g>
                        <g transform="matrix(136,0,0,136,758.185963,398.253952)">
                            <path d="M0.025,-0.065L0.025,-0L0.287,-0L0.287,-0.076C0.273,-0.076 0.244,-0.075 0.222,-0.073C0.225,-0.103 0.226,-0.142 0.226,-0.161L0.226,-0.755L0.172,-0.755C0.158,-0.742 0.111,-0.725 0.018,-0.725L0.018,-0.649C0.032,-0.65 0.067,-0.651 0.088,-0.652C0.085,-0.623 0.084,-0.589 0.084,-0.565L0.084,-0.154C0.084,-0.101 0.081,-0.065 0.025,-0.065Z" style="fill:rgb(21,40,26);fill-rule:nonzero;"/>
                        </g>
                        <g transform="matrix(136,0,0,136,800.617963,398.253952)">
                            <path d="M0.319,-0L0.508,-0L0.508,-0.076C0.494,-0.076 0.465,-0.075 0.443,-0.073C0.446,-0.103 0.447,-0.142 0.447,-0.161C0.447,-0.229 0.448,-0.257 0.448,-0.325C0.448,-0.458 0.38,-0.516 0.263,-0.516C0.146,-0.516 0.052,-0.463 0.052,-0.384C0.052,-0.348 0.074,-0.317 0.114,-0.316C0.161,-0.315 0.181,-0.351 0.181,-0.378C0.181,-0.388 0.179,-0.404 0.169,-0.416C0.186,-0.433 0.211,-0.443 0.237,-0.444C0.292,-0.446 0.309,-0.405 0.309,-0.353L0.309,-0.301C0.175,-0.295 0.03,-0.244 0.03,-0.117C0.03,-0.041 0.08,0.016 0.166,0.016C0.218,0.016 0.269,-0 0.315,-0.046C0.316,-0.029 0.316,-0.019 0.319,-0ZM0.308,-0.23L0.308,-0.118C0.287,-0.096 0.259,-0.082 0.229,-0.082C0.2,-0.082 0.173,-0.097 0.172,-0.134C0.171,-0.191 0.233,-0.223 0.308,-0.23Z" style="fill:rgb(21,40,26);fill-rule:nonzero;"/>
                        </g>
                        <g transform="matrix(136,0,0,136,871.881963,398.253952)">
                            <path d="M0.041,-0L0.303,-0L0.303,-0.076C0.289,-0.076 0.259,-0.075 0.238,-0.073C0.241,-0.103 0.242,-0.142 0.242,-0.161L0.242,-0.387C0.264,-0.407 0.3,-0.424 0.333,-0.424C0.392,-0.424 0.414,-0.383 0.414,-0.296L0.415,-0.154C0.415,-0.101 0.411,-0.065 0.355,-0.065L0.355,-0L0.617,-0L0.617,-0.076C0.603,-0.076 0.574,-0.075 0.552,-0.073C0.555,-0.103 0.556,-0.142 0.556,-0.161L0.556,-0.295C0.556,-0.449 0.509,-0.516 0.387,-0.516C0.347,-0.516 0.282,-0.491 0.243,-0.46C0.237,-0.487 0.241,-0.484 0.237,-0.51L0.188,-0.51C0.174,-0.497 0.126,-0.48 0.034,-0.48L0.034,-0.404C0.048,-0.405 0.083,-0.406 0.104,-0.407C0.101,-0.377 0.1,-0.346 0.1,-0.322L0.1,-0.154C0.1,-0.101 0.096,-0.065 0.041,-0.065L0.041,-0Z" style="fill:rgb(21,40,26);fill-rule:nonzero;"/>
                        </g>
                        <g transform="matrix(136,0,0,136,958.377963,398.253952)">
                            <path d="M0.278,0.016C0.346,0.016 0.439,-0.003 0.511,-0.106L0.466,-0.148C0.42,-0.092 0.359,-0.073 0.319,-0.073C0.215,-0.073 0.178,-0.154 0.178,-0.263L0.506,-0.269C0.508,-0.462 0.392,-0.516 0.281,-0.516C0.13,-0.516 0.031,-0.389 0.031,-0.249C0.031,-0.087 0.131,0.016 0.278,0.016ZM0.184,-0.333C0.194,-0.4 0.227,-0.446 0.286,-0.446C0.333,-0.446 0.366,-0.416 0.368,-0.333L0.184,-0.333Z" style="fill:rgb(21,40,26);fill-rule:nonzero;"/>
                        </g>
                        <g transform="matrix(136,0,0,136,1031.545963,398.253952)">
                            <path d="M0.239,0.016C0.261,0.016 0.353,0.014 0.425,-0.092L0.377,-0.137C0.339,-0.084 0.305,-0.077 0.286,-0.077C0.236,-0.077 0.226,-0.128 0.226,-0.174L0.227,-0.42L0.354,-0.423L0.354,-0.5L0.227,-0.5L0.228,-0.64L0.154,-0.64C0.14,-0.569 0.079,-0.501 0.017,-0.5L0.017,-0.417L0.085,-0.417L0.083,-0.176C0.083,-0.009 0.16,0.016 0.239,0.016Z" style="fill:rgb(21,40,26);fill-rule:nonzero;"/>
                        </g>
                        <g transform="matrix(136,0,0,136,1123.481963,398.253952)">
                            <path d="M0.05,-0L0.583,-0L0.589,-0.24L0.522,-0.24C0.522,-0.131 0.475,-0.077 0.396,-0.076L0.262,-0.076C0.264,-0.093 0.266,-0.128 0.266,-0.164L0.266,-0.547C0.266,-0.628 0.292,-0.632 0.337,-0.634L0.337,-0.7L0.05,-0.7L0.05,-0.623C0.064,-0.624 0.104,-0.625 0.125,-0.626C0.123,-0.609 0.121,-0.572 0.121,-0.536L0.121,-0.153C0.121,-0.072 0.095,-0.068 0.05,-0.066L0.05,-0Z" style="fill:rgb(21,40,26);fill-rule:nonzero;"/>
                        </g>
                        <g transform="matrix(136,0,0,136,1205.625963,398.253952)">
                            <path d="M0.319,-0L0.508,-0L0.508,-0.076C0.494,-0.076 0.465,-0.075 0.443,-0.073C0.446,-0.103 0.447,-0.142 0.447,-0.161C0.447,-0.229 0.448,-0.257 0.448,-0.325C0.448,-0.458 0.38,-0.516 0.263,-0.516C0.146,-0.516 0.052,-0.463 0.052,-0.384C0.052,-0.348 0.074,-0.317 0.114,-0.316C0.161,-0.315 0.181,-0.351 0.181,-0.378C0.181,-0.388 0.179,-0.404 0.169,-0.416C0.186,-0.433 0.211,-0.443 0.237,-0.444C0.292,-0.446 0.309,-0.405 0.309,-0.353L0.309,-0.301C0.175,-0.295 0.03,-0.244 0.03,-0.117C0.03,-0.041 0.08,0.016 0.166,0.016C0.218,0.016 0.269,-0 0.315,-0.046C0.316,-0.029 0.316,-0.019 0.319,-0ZM0.308,-0.23L0.308,-0.118C0.287,-0.096 0.259,-0.082 0.229,-0.082C0.2,-0.082 0.173,-0.097 0.172,-0.134C0.171,-0.191 0.233,-0.223 0.308,-0.23Z" style="fill:rgb(21,40,26);fill-rule:nonzero;"/>
                        </g>
                        <g transform="matrix(136,0,0,136,1275.257963,398.253952)">
                            <path d="M0.193,0.003L0.292,0.003L0.347,-0.162C0.354,-0.184 0.383,-0.277 0.394,-0.333C0.405,-0.291 0.422,-0.232 0.429,-0.21L0.498,0.003L0.604,0.003L0.718,-0.328C0.727,-0.354 0.755,-0.436 0.808,-0.436L0.808,-0.5L0.618,-0.5L0.618,-0.424L0.675,-0.428C0.663,-0.404 0.657,-0.384 0.646,-0.348L0.607,-0.221C0.599,-0.196 0.588,-0.16 0.583,-0.134C0.576,-0.161 0.567,-0.196 0.559,-0.224L0.479,-0.5L0.37,-0.5L0.297,-0.249C0.282,-0.199 0.277,-0.169 0.27,-0.141C0.265,-0.173 0.257,-0.207 0.249,-0.236L0.215,-0.358C0.204,-0.399 0.206,-0.434 0.248,-0.436L0.248,-0.5L0.008,-0.5L0.008,-0.424L0.047,-0.426C0.052,-0.402 0.054,-0.395 0.072,-0.344L0.193,0.003Z" style="fill:rgb(21,40,26);fill-rule:nonzero;"/>
                        </g>
                    </g>
                    <g transform="matrix(1.009249,0,0,1.009249,580.682446,-714.172234)">
                        <g transform="matrix(0.968421,0,0,0.968421,121.710861,-77.46275)">
                            <circle cx="-497.431" cy="337.193" r="57.506" style="fill:rgb(177,207,160);"/>
                        </g>
                        <g transform="matrix(0.968421,0,0,0.968421,121.710861,-77.46275)">
                            <path d="M-497.431,275.525C-463.395,275.525 -435.763,303.158 -435.763,337.193C-435.763,371.229 -463.395,398.861 -497.431,398.861C-531.466,398.861 -559.099,371.229 -559.099,337.193C-559.099,303.158 -531.466,275.525 -497.431,275.525ZM-502.212,340.92C-503.135,318.52 -523.707,314.8 -531.415,314.193C-531.424,316.784 -531.207,320.826 -530.08,325.046C-528.876,329.556 -526.634,334.318 -522.309,337.539C-517.939,340.793 -511.529,342.377 -502.212,340.92ZM-462.81,377.764C-451.354,367.977 -444.087,353.427 -444.087,337.193C-444.087,307.752 -467.989,283.85 -497.431,283.85C-526.872,283.85 -550.774,307.752 -550.774,337.193C-550.774,350.325 -546.019,362.356 -538.137,371.654C-524.305,377.433 -504.957,368.45 -502.45,347.179C-513.311,348.638 -520.802,346.342 -525.989,342.48C-531.503,338.373 -534.496,332.386 -536.032,326.636C-538.241,318.362 -537.421,310.677 -537.421,310.677C-537.259,309.133 -535.972,307.951 -534.42,307.92C-534.42,307.92 -505.046,307.43 -497.678,330.831C-496.29,326.893 -494.567,323.852 -492.59,321.432C-488.816,316.812 -484.077,314.324 -478.628,312.38C-473.766,310.644 -468.302,309.346 -462.538,306.947C-461.546,306.534 -460.411,306.668 -459.542,307.3C-458.673,307.933 -458.196,308.972 -458.285,310.043C-459.411,323.725 -462.23,331.708 -465.84,336.86C-469.599,342.223 -474.253,344.674 -479.216,346.988C-484.54,349.471 -490.274,351.793 -495.084,359.263C-494.361,367.641 -490.917,374.368 -485.553,378.116C-479.686,382.215 -471.648,382.518 -462.81,377.764ZM-500.892,362.513C-507.25,373.889 -518.871,379.665 -529.939,379.478C-520.936,386.412 -509.662,390.537 -497.431,390.537C-490.892,390.537 -484.626,389.358 -478.834,387.201C-482.623,386.665 -486.078,385.264 -489.082,383.166C-495.161,378.918 -499.484,371.66 -500.892,362.513ZM-494.929,349.434C-490.684,345.438 -486.164,343.431 -481.819,341.405C-477.797,339.529 -473.931,337.67 -470.885,333.324C-468.147,329.417 -466.089,323.625 -464.929,314.428C-469.049,315.844 -472.963,316.899 -476.558,318.182C-480.925,319.741 -484.794,321.626 -487.819,325.33C-491.596,329.953 -494.028,337.213 -494.929,349.434Z" style="fill:rgb(21,40,26);"/>
                        </g>
                    </g>
                </g>
            </g>
        </g>
    </g>
</svg>
